<svg xmlns="http://www.w3.org/2000/svg" viewBox="0 0 38 38" width="38" height="38">
  <defs>
    <linearGradient id="L1" x1="0" y1="0" x2="38" y2="38" gradientUnits="userSpaceOnUse">
      <stop offset="0%" stop-color="#2D5BE3"/>
      <stop offset="100%" stop-color="#1A3FA8"/>
    </linearGradient>
    <linearGradient id="L2" x1="0" y1="38" x2="38" y2="0" gradientUnits="userSpaceOnUse">
      <stop offset="0%" stop-color="#1A3FA8" stop-opacity=".7"/>
      <stop offset="100%" stop-color="#4A7AFF" stop-opacity=".9"/>
    </linearGradient>
  </defs>
  <!-- Book depth shadow -->
  <rect x="3" y="8" width="32" height="22" rx="3" fill="#1A3FA8" opacity=".35"/>
  <!-- Left page -->
  <path d="M5 10 C5 8.9 5.9 8 7 8 L18 8 L18 30 L7 30 C5.9 30 5 29.1 5 28 Z" fill="url(#L1)"/>
  <!-- Right page -->
  <path d="M20 8 L31 8 C32.1 8 33 8.9 33 10 L33 28 C33 29.1 32.1 30 31 30 L20 30 Z" fill="url(#L2)"/>
  <!-- Spine -->
  <rect x="17.5" y="8" width="3" height="22" fill="#0E2870"/>
  <!-- Left page lines -->
  <line x1="8.5" y1="13" x2="16" y2="13" stroke="rgba(255,255,255,0.45)" stroke-width="1" stroke-linecap="round"/>
  <line x1="8.5" y1="17" x2="16" y2="17" stroke="rgba(255,255,255,0.45)" stroke-width="1" stroke-linecap="round"/>
  <line x1="8.5" y1="21" x2="14" y2="21" stroke="rgba(255,255,255,0.3)" stroke-width="1" stroke-linecap="round"/>
  <!-- Right page lines -->
  <line x1="22" y1="13" x2="29.5" y2="13" stroke="rgba(255,255,255,0.45)" stroke-width="1" stroke-linecap="round"/>
  <line x1="22" y1="17" x2="29.5" y2="17" stroke="rgba(255,255,255,0.45)" stroke-width="1" stroke-linecap="round"/>
  <line x1="22" y1="21" x2="27" y2="21" stroke="rgba(255,255,255,0.3)" stroke-width="1" stroke-linecap="round"/>
  <!-- Growth arrow badge -->
  <circle cx="29" cy="9" r="6.5" fill="#F7F5F0"/>
  <path d="M29 13 L29 6.5 M26.5 9 L29 6.5 L31.5 9" stroke="#2D5BE3" stroke-width="1.8" stroke-linecap="round" stroke-linejoin="round" fill="none"/>
</svg>
