<svg xmlns="http://www.w3.org/2000/svg" viewBox="0 0 38 38" fill="none">
  <rect width="38" height="38" rx="9" fill="#2D5BE3"/>
  <rect x="3" y="8" width="32" height="22" rx="3" fill="#1A3FA8" opacity=".4"/>
  <path d="M5 10 C5 8.9 5.9 8 7 8 L18 8 L18 30 L7 30 C5.9 30 5 29.1 5 28 Z" fill="white" opacity="0.9"/>
  <path d="M20 8 L31 8 C32.1 8 33 8.9 33 10 L33 28 C33 29.1 32.1 30 31 30 L20 30 Z" fill="white" opacity="0.6"/>
  <rect x="17.5" y="8" width="3" height="22" fill="#0E2870"/>
  <line x1="8.5" y1="13" x2="16" y2="13" stroke="#2D5BE3" stroke-width="1.2" stroke-linecap="round"/>
  <line x1="8.5" y1="17" x2="16" y2="17" stroke="#2D5BE3" stroke-width="1.2" stroke-linecap="round"/>
  <line x1="22" y1="13" x2="29.5" y2="13" stroke="#2D5BE3" stroke-width="1.2" stroke-linecap="round"/>
  <line x1="22" y1="17" x2="29.5" y2="17" stroke="#2D5BE3" stroke-width="1.2" stroke-linecap="round"/>
  <circle cx="30" cy="10" r="7" fill="white"/>
  <circle cx="30" cy="10" r="6" fill="#2D5BE3"/>
  <path d="M30 13.5 L30 7.5 M27.5 10 L30 7.5 L32.5 10" stroke="white" stroke-width="1.8" stroke-linecap="round" stroke-linejoin="round" fill="none"/>
</svg>
